<svg xmlns="http://www.w3.org/2000/svg" xmlns:xlink="http://www.w3.org/1999/xlink" version="1.1" width="1000" height="1000" viewBox="0 0 1000 1000" xml:space="preserve">
<desc>Created with Fabric.js 3.5.0</desc>
<defs>
</defs>
<rect x="0" y="0" width="100%" height="100%" fill="rgba(255,255,255,0)"/>
<g transform="matrix(3.8029 0 0 3.8029 463.9901 657.9404)" id="934096">
<g style="" vector-effect="non-scaling-stroke">
		<g transform="matrix(1 0 0 1 10.4169 -40.8878)">
<path style="stroke: none; stroke-width: 1; stroke-dasharray: none; stroke-linecap: butt; stroke-dashoffset: 0; stroke-linejoin: miter; stroke-miterlimit: 4; is-custom-font: none; font-file-url: none; fill: rgb(237,159,58); fill-rule: nonzero; opacity: 1;" transform=" translate(70.5832, -84.1122)" d="M 0 0 C 0.80308594 0.64839844 1.60617188 1.29679687 2.43359375 1.96484375 C 21.97781258 18.52831517 35.8947289 44.73154872 38.75390625 70.2578125 C 40.4352122 95.82433795 36.2070679 117.42685128 24 140 C 23.47792969 140.969375 22.95585937 141.93875 22.41796875 142.9375 C 8.63316063 166.38912292 -15.95822892 183.20881945 -42 190 C -59.96747786 194.208832 -76.9358624 194.93245901 -95 191 C -96.0828125 190.76434326 -96.0828125 190.76434326 -97.1875 190.52392578 C -115.30035291 186.35780313 -131.10741797 177.17633328 -145 165 C -145.81597656 164.29617187 -146.63195312 163.59234375 -147.47265625 162.8671875 C -167.50863063 144.28002255 -178.92703408 115.84726595 -180.21484375 88.95703125 C -181.17440167 58.6725336 -170.27527897 30.24520084 -149.8984375 7.859375 C -145.866145 3.91005148 -141.47013212 0.43664753 -137 -3 C -136.21882813 -3.6084375 -135.43765625 -4.216875 -134.6328125 -4.84375 C -94.27699764 -34.73694619 -38.30648772 -30.97922706 0 0 Z M -128.90625 36.5 C -140.66935204 50.54549497 -147.87043099 69.69339233 -147.29296875 88.1171875 C -146.50855388 95.8358298 -145.08308877 103.53688155 -142.1875 110.75 C -139.03370525 119.66405904 -144.30909972 131.4558028 -146.625 140.1875 C -146.94984375 141.42564453 -147.2746875 142.66378906 -147.609375 143.93945312 C -148.4025779 146.96062299 -149.19951708 149.98075248 -150 153 C -142.34560862 152.29427597 -135.29804531 150.20724256 -127.95703125 147.99609375 C -118.85477459 145.37935147 -118.85477459 145.37935147 -114 147 C -111.45703125 148.453125 -111.45703125 148.453125 -108.8125 150.25 C -92.33070789 160.08231141 -71.49941901 161.8512618 -53 157.4375 C -41.28591567 153.75666865 -31.12967759 148.235863 -22 140 C -21.30390625 139.39671875 -20.6078125 138.7934375 -19.890625 138.171875 C -6.13283957 125.48058457 0.82334936 106.74842923 2.28515625 88.42578125 C 2.62009197 75.42153795 -0.44810696 63.689076 -6 52 C -6.34546875 51.23300781 -6.6909375 50.46601562 -7.046875 49.67578125 C -10.66440248 42.37519136 -16.34796079 36.74879309 -22 31 C -22.93779297 30.00806641 -22.93779297 30.00806641 -23.89453125 28.99609375 C -33.08537368 20.05421319 -46.50070049 14.09956836 -59 12 C -60.134375 11.773125 -61.26875 11.54625 -62.4375 11.3125 C -88.43006568 9.03245038 -110.85643253 17.66540786 -128.90625 36.5 Z" stroke-linecap="round"/>
</g>
		<g transform="matrix(1 0 0 1 12.5062 -38.0694)">
<path style="stroke: none; stroke-width: 1; stroke-dasharray: none; stroke-linecap: butt; stroke-dashoffset: 0; stroke-linejoin: miter; stroke-miterlimit: 4; is-custom-font: none; font-file-url: none; fill: rgb(237,162,63); fill-rule: nonzero; opacity: 1;" transform=" translate(-19.9104, -39.0599)" d="M 0 0 C 1.46657043 -0.00472824 1.46657043 -0.00472824 2.96276855 -0.009552 C 4.0262854 -0.00752777 5.08980225 -0.00550354 6.18554688 -0.00341797 C 7.81127625 -0.00485306 7.81127625 -0.00485306 9.46984863 -0.00631714 C 11.76652077 -0.00699912 14.06319482 -0.00514358 16.35986328 -0.00097656 C 19.88904115 0.00437141 23.41809174 -0.00092097 26.94726562 -0.00732422 C 29.17252632 -0.00666344 31.39778694 -0.00538228 33.62304688 -0.00341797 C 34.68656372 -0.0054422 35.75008057 -0.00746643 36.8458252 -0.009552 C 37.82353882 -0.00639984 38.80125244 -0.00324768 39.80859375 0 C 40.67383667 0.00079559 41.53907959 0.00159119 42.43054199 0.00241089 C 44.40429688 0.12939453 44.40429688 0.12939453 45.40429688 1.12939453 C 45.50266897 2.45983078 45.5350828 3.79532797 45.53710938 5.12939453 C 45.53904297 6.33595703 45.53904297 6.33595703 45.54101562 7.56689453 C 45.53714844 8.41251953 45.53328125 9.25814453 45.52929688 10.12939453 C 45.53509766 11.39783203 45.53509766 11.39783203 45.54101562 12.69189453 C 45.53972656 13.49626953 45.5384375 14.30064453 45.53710938 15.12939453 C 45.53598145 15.87189453 45.53485352 16.61439453 45.53369141 17.37939453 C 45.40429688 19.12939453 45.40429688 19.12939453 44.40429688 20.12939453 C 42.33344968 20.28782103 40.25751658 20.38063876 38.18164062 20.44580078 C 36.92158203 20.48769531 35.66152344 20.52958984 34.36328125 20.57275391 C 33.02278952 20.61257049 31.68229468 20.65228267 30.34179688 20.69189453 C 28.99738165 20.73507496 27.65298028 20.77868909 26.30859375 20.82275391 C 23.00727347 20.92924811 19.70587452 21.03125914 16.40429688 21.12939453 C 16.40429688 23.76939453 16.40429688 26.40939453 16.40429688 29.12939453 C 29.76929688 29.62439453 29.76929688 29.62439453 43.40429688 30.12939453 C 43.42492187 33.24376953 43.44554687 36.35814453 43.46679688 39.56689453 C 43.47590088 40.54972412 43.48500488 41.53255371 43.49438477 42.54516602 C 43.49688232 43.31417236 43.49937988 44.08317871 43.50195312 44.87548828 C 43.50718994 45.66624756 43.51242676 46.45700684 43.51782227 47.27172852 C 43.40429688 49.12939453 43.40429688 49.12939453 42.40429688 50.12939453 C 40.47950875 50.28745984 38.54930477 50.38052953 36.61914062 50.44580078 C 35.44931641 50.48769531 34.27949219 50.52958984 33.07421875 50.57275391 C 31.84251953 50.61207031 30.61082031 50.65138672 29.34179688 50.69189453 C 27.48844727 50.75666992 27.48844727 50.75666992 25.59765625 50.82275391 C 22.53332352 50.92923651 19.46890614 51.03124877 16.40429688 51.12939453 C 16.4121521 52.24967041 16.4121521 52.24967041 16.42016602 53.39257812 C 16.44090088 56.7631751 16.45394587 60.13375868 16.46679688 63.50439453 C 16.47517578 64.68001953 16.48355469 65.85564453 16.4921875 67.06689453 C 16.49702148 68.74912109 16.49702148 68.74912109 16.50195312 70.46533203 C 16.50980835 72.0206665 16.50980835 72.0206665 16.51782227 73.60742188 C 16.40429688 76.12939453 16.40429688 76.12939453 15.40429688 78.12939453 C 8.47429687 78.12939453 1.54429687 78.12939453 -5.59570312 78.12939453 C -5.61825473 68.10711288 -5.63661855 58.08484796 -5.6475153 48.06254673 C -5.65274398 43.40928267 -5.65984135 38.75603679 -5.67114258 34.1027832 C -5.68197199 29.61594907 -5.68798007 25.12913249 -5.69058037 20.6422863 C -5.69243452 18.9265916 -5.69605495 17.21089792 -5.70143318 15.49521065 C -5.70864434 13.1005454 -5.70969404 10.70595357 -5.70922852 8.3112793 C -5.71282379 7.59486771 -5.71641907 6.87845612 -5.72012329 6.14033508 C -5.70829261 0.55261453 -5.54080097 0.00509478 0 0 Z" stroke-linecap="round"/>
</g>
		<g transform="matrix(1 0 0 1 16.0863 -75.6807)">
<path style="stroke: none; stroke-width: 1; stroke-dasharray: none; stroke-linecap: butt; stroke-dashoffset: 0; stroke-linejoin: miter; stroke-miterlimit: 4; is-custom-font: none; font-file-url: none; fill: rgb(236,184,117); fill-rule: nonzero; opacity: 1;" transform=" translate(64.9137, -49.3193)" d="M 0 0 C 0.80308594 0.64839844 1.60617188 1.29679687 2.43359375 1.96484375 C 21.97781258 18.52831517 35.8947289 44.73154872 38.75390625 70.2578125 C 39.97471121 88.8217991 38.75770287 106.50543926 32 124 C 31.67 124 31.34 124 31 124 C 31.39017754 117.6544811 31.90411701 112.02566359 34 106 C 35.41330996 97.75569188 35.09998279 89.33189933 35 81 C 35.99 80.67 36.98 80.34 38 80 C 37.7834375 79.34773438 37.566875 78.69546875 37.34375 78.0234375 C 35.78803094 73.14020823 34.8801156 69.15502903 35 64 C 34.12085312 61.3430809 34.12085312 61.3430809 33 59 C 31.65413793 54.9624138 30.76119552 50.92339062 29.9375 46.75 C 29.67259766 45.41195312 29.67259766 45.41195312 29.40234375 44.046875 C 29.26957031 43.37140625 29.13679687 42.6959375 29 42 C 28.34 42 27.68 42 27 42 C 27 42.66 27 43.32 27 44 C 26.34 44 25.68 44 25 44 C 22.22957891 41.22957891 22.60203894 39.23466195 22.375 35.375 C 22.26285156 33.59222656 22.26285156 33.59222656 22.1484375 31.7734375 C 22.09945312 30.85820313 22.05046875 29.94296875 22 29 C 21.01 29.33 20.02 29.66 19 30 C 19 29.34 19 28.68 19 28 C 18.34 28 17.68 28 17 28 C 16.773125 26.783125 16.54625 25.56625 16.3125 24.3125 C 15.2480982 20.00927559 13.39638573 17.89935367 10 15 C 9.2265625 14.13375 9.2265625 14.13375 8.4375 13.25 C 6.69524203 11.73499307 5.25120518 11.38813882 3 11 C 3.33 10.34 3.66 9.68 4 9 C 1.22920113 5.19015156 -2.62868145 4.93159248 -7 4 C -7 3.34 -7 2.68 -7 2 C -6.01 2 -5.02 2 -4 2 C -6.8956414 -1.32462531 -8.69268237 -2.30151606 -13 -3 C -13.33 -3.66 -13.66 -4.32 -14 -5 C -14.99 -5 -15.98 -5 -17 -5 C -17.33 -6.32 -17.66 -7.64 -18 -9 C -20.31 -9.66 -22.62 -10.32 -25 -11 C -25 -11.66 -25 -12.32 -25 -13 C -27.31 -12.34 -29.62 -11.68 -32 -11 C -32.33 -12.65 -32.66 -14.3 -33 -16 C -33.680625 -16.12375 -34.36125 -16.2475 -35.0625 -16.375 C -37.14317148 -16.81769606 -39.2060923 -17.34791124 -41.25 -17.9375 C -43.10625 -18.4634375 -43.10625 -18.4634375 -45 -19 C -45.680625 -19.20109375 -46.36125 -19.4021875 -47.0625 -19.609375 C -52.44728651 -21.03249715 -56.92775628 -20.88467078 -62.4375 -20.2265625 C -65.74729214 -19.93392844 -68.73160363 -20.45526727 -72 -21 C -75.00221056 -21.0870206 -77.99743732 -21.06127679 -81 -21 C -81 -20.34 -81 -19.68 -81 -19 C -82.16917969 -19.02320313 -83.33835937 -19.04640625 -84.54296875 -19.0703125 C -86.09113942 -19.08907821 -87.63931703 -19.10727755 -89.1875 -19.125 C -89.95642578 -19.14175781 -90.72535156 -19.15851562 -91.51757812 -19.17578125 C -95.75353914 -19.21214143 -99.2151478 -19.15445433 -103 -17 C -104.36078035 -14.47627099 -104.36078035 -14.47627099 -105 -12 C -108 -12 -108 -12 -111 -13 C -115.92554423 -11.59639212 -120.59000474 -9.33485016 -125 -6.75 C -128 -5 -128 -5 -130 -5 C -130 -4.34 -130 -3.68 -130 -3 C -131.87109375 -1.73828125 -131.87109375 -1.73828125 -134.4375 -0.3125 C -145.43340837 6.08228359 -152.05310572 12.81301446 -158 24 C -158.66 24 -159.32 24 -160 24 C -160.1546875 25.11375 -160.1546875 25.11375 -160.3125 26.25 C -161.04857303 29.19429211 -162.18104443 30.62744926 -164 33 C -164 33.99 -164 34.98 -164 36 C -165.65 36.66 -167.3 37.32 -169 38 C -167.18975154 31.25777801 -164.50690463 26.32376569 -160.1875 20.875 C -159.67896484 20.21113281 -159.17042969 19.54726563 -158.64648438 18.86328125 C -152.12735124 10.41897953 -145.47807381 3.54222752 -137 -3 C -136.21753906 -3.60972656 -135.43507812 -4.21945313 -134.62890625 -4.84765625 C -94.2651595 -34.72908091 -38.31099862 -30.98287511 0 0 Z" stroke-linecap="round"/>
</g>
		<g transform="matrix(1 0 0 1 11.0763 -70)">
<path style="stroke: none; stroke-width: 1; stroke-dasharray: none; stroke-linecap: butt; stroke-dashoffset: 0; stroke-linejoin: miter; stroke-miterlimit: 4; is-custom-font: none; font-file-url: none; fill: rgb(238,179,106); fill-rule: nonzero; opacity: 1;" transform=" translate(-18.0763, -49)" d="M 0 0 C 2.97 0 5.94 0 9 0 C 9.495 0.99 9.495 0.99 10 2 C 10.886875 1.814375 11.77375 1.62875 12.6875 1.4375 C 15.88729962 1.01488496 17.89926124 1.32957 21 2 C 21.99 1.67 22.98 1.34 24 1 C 24 1.66 24 2.32 24 3 C 31.425 3.99 31.425 3.99 39 5 C 39 5.66 39 6.32 39 7 C 39.78375 6.95875 40.5675 6.9175 41.375 6.875 C 44 7 44 7 46 9 C 46.99 9 47.98 9 49 9 C 49.33 8.34 49.66 7.68 50 7 C 51.32 7 52.64 7 54 7 C 53.34 8.65 52.68 10.3 52 12 C 53.0828125 12.433125 53.0828125 12.433125 54.1875 12.875 C 55.115625 13.24625 56.04375 13.6175 57 14 C 57.86625 14.309375 58.7325 14.61875 59.625 14.9375 C 62.02929258 16.01310457 63.3734141 16.94536517 65 19 C 65 19.66 65 20.32 65 21 C 65.66 21 66.32 21 67 21 C 67 21.99 67 22.98 67 24 C 67.61875 24.226875 68.2375 24.45375 68.875 24.6875 C 71 26 71 26 72 28.5625 C 72.33 29.366875 72.66 30.17125 73 31 C 73.6290625 31.14308594 74.258125 31.28617188 74.90625 31.43359375 C 78.16807973 32.31599172 78.97653808 34.6369952 80.65625 37.40625 C 82.32365632 39.38387145 83.52762511 39.47310043 86 40 C 86.33 40.66 86.66 41.32 87 42 C 86.01 42 85.02 42 84 42 C 84 42.66 84 43.32 84 44 C 84.66 44.33 85.32 44.66 86 45 C 86.36992766 46.32364739 86.69684424 47.65948313 87 49 C 87.96972298 51.22228183 89.01234077 53.40067968 90.0625 55.5859375 C 92.46572873 61.77425148 92.151823 68.21412837 92.125 74.75 C 92.12886719 75.70777344 92.13273438 76.66554688 92.13671875 77.65234375 C 92.13478516 79.02326172 92.13478516 79.02326172 92.1328125 80.421875 C 92.13168457 81.25299805 92.13055664 82.08412109 92.12939453 82.94042969 C 92 85 92 85 91 87 C 90.72975292 89.29924497 90.55502159 91.59801487 90.37890625 93.90625 C 90 96 90 96 88 98 C 88.0721875 97.29617187 88.144375 96.59234375 88.21875 95.8671875 C 89.90593509 77.91741278 88.82433991 62.47353493 81 46 C 80.65453125 45.23300781 80.3090625 44.46601562 79.953125 43.67578125 C 72.21524889 28.05985012 56.71358782 16.54588134 41 10 C 37.03495925 8.72502223 33.09087889 7.77012027 29 7 C 27.865625 6.773125 26.73125 6.54625 25.5625 6.3125 C 4.52480236 4.46708793 -14.89209142 9.49600594 -31.390625 22.76171875 C -32.25171875 23.50035156 -33.1128125 24.23898438 -34 25 C -34.73734375 25.62519531 -35.4746875 26.25039063 -36.234375 26.89453125 C -44.24133616 34.26528038 -49.41250523 44.25157362 -54 54 C -56 51 -56 51 -56 48 C -55.34 48 -54.68 48 -54 48 C -54.495 46.515 -54.495 46.515 -55 45 C -53.25 42.3125 -53.25 42.3125 -51 40 C -50.01 40 -49.02 40 -48 40 C -48.185625 39.21625 -48.37125 38.4325 -48.5625 37.625 C -49 35 -49 35 -48 33 C -47.34 33 -46.68 33 -46 33 C -46 32.34 -46 31.68 -46 31 C -45.071875 30.87625 -45.071875 30.87625 -44.125 30.75 C -41.8653367 30.22094022 -41.8653367 30.22094022 -41.0625 28.25 C -40.711875 27.5075 -40.36125 26.765 -40 26 C -37.5625 23.25 -37.5625 23.25 -35 21 C -34.01 21 -33.02 21 -32 21 C -31.67 20.34 -31.34 19.68 -31 19 C -29.24331503 17.69540307 -27.42504666 16.51350386 -25.59375 15.31640625 C -23.70259275 13.99119933 -23.70259275 13.99119933 -23 11 C -23.99 11 -24.98 11 -26 11 C -25.34 9.68 -24.68 8.36 -24 7 C -23.236875 7.185625 -22.47375 7.37125 -21.6875 7.5625 C -18.91032625 8.22819173 -18.91032625 8.22819173 -16 7 C -14.5459375 7.0309375 -14.5459375 7.0309375 -13.0625 7.0625 C -9.93001173 6.99857167 -8.68500927 6.43200494 -6 5 C -4.68 5 -3.36 5 -2 5 C -1.34 3.35 -0.68 1.7 0 0 Z" stroke-linecap="round"/>
</g>
		<g transform="matrix(1 0 0 1 12.5082 -40.5765)">
<path style="stroke: none; stroke-width: 1; stroke-dasharray: none; stroke-linecap: butt; stroke-dashoffset: 0; stroke-linejoin: miter; stroke-miterlimit: 4; is-custom-font: none; font-file-url: none; fill: rgb(233,174,97); fill-rule: nonzero; opacity: 1;" transform=" translate(-19.9125, -36.553)" d="M 0 0 C 1.46657043 -0.00472824 1.46657043 -0.00472824 2.96276855 -0.009552 C 4.0262854 -0.00752777 5.08980225 -0.00550354 6.18554688 -0.00341797 C 7.81127625 -0.00485306 7.81127625 -0.00485306 9.46984863 -0.00631714 C 11.76652077 -0.00699912 14.06319482 -0.00514358 16.35986328 -0.00097656 C 19.88904115 0.00437141 23.41809174 -0.00092097 26.94726562 -0.00732422 C 29.17252632 -0.00666344 31.39778694 -0.00538228 33.62304688 -0.00341797 C 34.68656372 -0.0054422 35.75008057 -0.00746643 36.8458252 -0.009552 C 37.82353882 -0.00639984 38.80125244 -0.00324768 39.80859375 0 C 40.67383667 0.00079559 41.53907959 0.00159119 42.43054199 0.00241089 C 44.40429688 0.12939453 44.40429688 0.12939453 45.40429688 1.12939453 C 45.50266897 2.45983078 45.5350828 3.79532797 45.53710938 5.12939453 C 45.53904297 6.33595703 45.53904297 6.33595703 45.54101562 7.56689453 C 45.53714844 8.41251953 45.53328125 9.25814453 45.52929688 10.12939453 C 45.53509766 11.39783203 45.53509766 11.39783203 45.54101562 12.69189453 C 45.53972656 13.49626953 45.5384375 14.30064453 45.53710938 15.12939453 C 45.53598145 15.87189453 45.53485352 16.61439453 45.53369141 17.37939453 C 45.40429688 19.12939453 45.40429688 19.12939453 44.40429688 20.12939453 C 42.33344968 20.28782103 40.25751658 20.38063876 38.18164062 20.44580078 C 36.92158203 20.48769531 35.66152344 20.52958984 34.36328125 20.57275391 C 33.02278952 20.61257049 31.68229468 20.65228267 30.34179688 20.69189453 C 28.99738165 20.73507496 27.65298028 20.77868909 26.30859375 20.82275391 C 23.00727347 20.92924811 19.70587452 21.03125914 16.40429688 21.12939453 C 16.07429688 23.76939453 15.74429688 26.40939453 15.40429688 29.12939453 C 14.74429688 29.12939453 14.08429688 29.12939453 13.40429688 29.12939453 C 13.07429688 25.49939453 12.74429688 21.86939453 12.40429688 18.12939453 C 13.39429688 17.79939453 14.38429687 17.46939453 15.40429688 17.12939453 C 15.40429688 16.13939453 15.40429688 15.14939453 15.40429688 14.12939453 C 17.38429687 13.79939453 19.36429688 13.46939453 21.40429688 13.12939453 C 21.40429688 14.11939453 21.40429688 15.10939453 21.40429688 16.12939453 C 23.69738651 17.27593935 25.20339344 17.3266857 27.75585938 17.44580078 C 28.60664063 17.48769531 29.45742187 17.52958984 30.33398438 17.57275391 C 31.2234375 17.61207031 32.11289063 17.65138672 33.02929688 17.69189453 C 33.92648438 17.73507813 34.82367188 17.77826172 35.74804688 17.82275391 C 37.9666397 17.92896314 40.18534567 18.03100648 42.40429688 18.12939453 C 41.89125 17.54287109 41.37820312 16.95634766 40.84960938 16.35205078 C 40.37265625 15.61857422 39.89570313 14.88509766 39.40429688 14.12939453 C 40.27929688 10.56689453 40.27929688 10.56689453 41.40429688 7.12939453 C 40.90929687 5.64439453 40.90929687 5.64439453 40.40429688 4.12939453 C 26.54429687 4.12939453 12.68429688 4.12939453 -1.59570312 4.12939453 C -3.68599123 27.12256366 -4.20362572 50.05420508 -4.59570312 73.12939453 C -4.92570313 73.12939453 -5.25570312 73.12939453 -5.59570312 73.12939453 C -5.61882816 63.75903515 -5.63661903 54.38868552 -5.6475153 45.01830387 C -5.65274377 40.66770994 -5.65984078 36.31713547 -5.67114258 31.96655273 C -5.68197272 27.77149195 -5.68798023 23.57644994 -5.69058037 19.38137627 C -5.69243439 17.77732485 -5.69605457 16.17327451 -5.70143318 14.56923103 C -5.70864531 12.33022938 -5.709694 10.09130624 -5.70922852 7.85229492 C -5.71144913 6.57544327 -5.71366974 5.29859161 -5.71595764 3.98304749 C -5.52318547 -0.59145735 -4.13835566 0.00380523 0 0 Z" stroke-linecap="round"/>
</g>
		<g transform="matrix(1 0 0 1 112.0654 -46.5)">
<path style="stroke: none; stroke-width: 1; stroke-dasharray: none; stroke-linecap: butt; stroke-dashoffset: 0; stroke-linejoin: miter; stroke-miterlimit: 4; is-custom-font: none; font-file-url: none; fill: rgb(231,180,102); fill-rule: nonzero; opacity: 1;" transform=" translate(-8.0654, -45.5)" d="M 0 0 C 6.42868798 3.10012872 7.99426248 8.62051757 10.30664062 14.95166016 C 18.66210696 39.63559062 18.4040545 66.65447821 9 91 C 8.67 91 8.34 91 8 91 C 8.39017754 84.6544811 8.90411701 79.02566359 11 73 C 12.41330996 64.75569188 12.09998279 56.33189933 12 48 C 13.485 47.505 13.485 47.505 15 47 C 14.7834375 46.34773438 14.566875 45.69546875 14.34375 45.0234375 C 12.78803094 40.14020823 11.8801156 36.15502903 12 31 C 11.12085312 28.3430809 11.12085312 28.3430809 10 26 C 8.65413793 21.9624138 7.76119552 17.92339062 6.9375 13.75 C 6.76089844 12.85796875 6.58429688 11.9659375 6.40234375 11.046875 C 6.26957031 10.37140625 6.13679687 9.6959375 6 9 C 5.34 9 4.68 9 4 9 C 4 9.66 4 10.32 4 11 C 3.34 11 2.68 11 2 11 C 0 9 0 9 -0.1953125 6.8359375 C -0.17210937 6.02382812 -0.14890625 5.21171875 -0.125 4.375 C -0.10695312 3.55773438 -0.08890625 2.74046875 -0.0703125 1.8984375 C -0.04710937 1.27195313 -0.02390625 0.64546875 0 0 Z" stroke-linecap="round"/>
</g>
		<g transform="matrix(1 0 0 1 79.0763 -50.5)">
<path style="stroke: none; stroke-width: 1; stroke-dasharray: none; stroke-linecap: butt; stroke-dashoffset: 0; stroke-linejoin: miter; stroke-miterlimit: 4; is-custom-font: none; font-file-url: none; fill: rgb(233,175,90); fill-rule: nonzero; opacity: 1;" transform=" translate(-6.0763, -29.5)" d="M 0 0 C 1.98 0 3.96 0 6 0 C 6.33 0.99 6.66 1.98 7 3 C 6.01 3 5.02 3 4 3 C 4 3.66 4 4.32 4 5 C 4.66 5.33 5.32 5.66 6 6 C 6.36992766 7.32364739 6.69684424 8.65948313 7 10 C 7.96972298 12.22228183 9.01234077 14.40067968 10.0625 16.5859375 C 12.46572873 22.77425148 12.151823 29.21412837 12.125 35.75 C 12.12886719 36.70777344 12.13273438 37.66554687 12.13671875 38.65234375 C 12.13542969 39.56628906 12.13414062 40.48023438 12.1328125 41.421875 C 12.13168457 42.25299805 12.13055664 43.08412109 12.12939453 43.94042969 C 12 46 12 46 11 48 C 10.72975292 50.29924497 10.55502159 52.59801487 10.37890625 54.90625 C 10 57 10 57 8 59 C 8.0721875 58.29617187 8.144375 57.59234375 8.21875 56.8671875 C 9.81259471 39.9104507 9.08466105 25.37065858 2.07421875 9.64453125 C 0.74084664 6.36201155 0.23982784 3.51747493 0 0 Z" stroke-linecap="round"/>
</g>
		<g transform="matrix(1 0 0 1 12.4759 -40.5765)">
<path style="stroke: none; stroke-width: 1; stroke-dasharray: none; stroke-linecap: butt; stroke-dashoffset: 0; stroke-linejoin: miter; stroke-miterlimit: 4; is-custom-font: none; font-file-url: none; fill: rgb(223,180,122); fill-rule: nonzero; opacity: 1;" transform=" translate(-19.8802, -36.553)" d="M 0 0 C 1.46657043 -0.00472824 1.46657043 -0.00472824 2.96276855 -0.009552 C 4.0262854 -0.00752777 5.08980225 -0.00550354 6.18554688 -0.00341797 C 7.81127625 -0.00485306 7.81127625 -0.00485306 9.46984863 -0.00631714 C 11.76652077 -0.00699912 14.06319482 -0.00514358 16.35986328 -0.00097656 C 19.88904115 0.00437141 23.41809174 -0.00092097 26.94726562 -0.00732422 C 29.17252632 -0.00666344 31.39778694 -0.00538228 33.62304688 -0.00341797 C 34.68656372 -0.0054422 35.75008057 -0.00746643 36.8458252 -0.009552 C 37.82353882 -0.00639984 38.80125244 -0.00324768 39.80859375 0 C 40.67383667 0.00079559 41.53907959 0.00159119 42.43054199 0.00241089 C 44.40429688 0.12939453 44.40429688 0.12939453 45.40429688 1.12939453 C 45.47656189 2.98226955 45.48810907 4.83773331 45.46679688 6.69189453 C 45.45777344 7.70380859 45.44875 8.71572266 45.43945312 9.75830078 C 45.42785156 10.54076172 45.41625 11.32322266 45.40429688 12.12939453 C 43.40429688 9.12939453 43.40429688 9.12939453 41.40429688 2.12939453 C 26.55429688 2.12939453 11.70429688 2.12939453 -3.59570312 2.12939453 C -3.92570313 25.55939453 -4.25570312 48.98939453 -4.59570312 73.12939453 C -4.92570313 73.12939453 -5.25570312 73.12939453 -5.59570312 73.12939453 C -5.61882816 63.75903515 -5.63661903 54.38868552 -5.6475153 45.01830387 C -5.65274377 40.66770994 -5.65984078 36.31713547 -5.67114258 31.96655273 C -5.68197272 27.77149195 -5.68798023 23.57644994 -5.69058037 19.38137627 C -5.69243439 17.77732485 -5.69605457 16.17327451 -5.70143318 14.56923103 C -5.70864531 12.33022938 -5.709694 10.09130624 -5.70922852 7.85229492 C -5.71144913 6.57544327 -5.71366974 5.29859161 -5.71595764 3.98304749 C -5.52318547 -0.59145735 -4.13835566 0.00380523 0 0 Z" stroke-linecap="round"/>
</g>
		<g transform="matrix(1 0 0 1 -47 48.0482)">
<path style="stroke: none; stroke-width: 1; stroke-dasharray: none; stroke-linecap: butt; stroke-dashoffset: 0; stroke-linejoin: miter; stroke-miterlimit: 4; is-custom-font: none; font-file-url: none; fill: rgb(224,147,42); fill-rule: nonzero; opacity: 1;" transform=" translate(-9, -8.0482)" d="M 0 0 C 1.98 0.66 3.96 1.32 6 2 C 6 2.66 6 3.32 6 4 C 7.32 4.33 8.64 4.66 10 5 C 10.33 6.65 10.66 8.3 11 10 C 11.598125 9.67 12.19625 9.34 12.8125 9 C 15 8 15 8 18 8 C 18 9.32 18 10.64 18 12 C 19.41977909 14.22743787 19.41977909 14.22743787 21 16 C 15.6536075 16.48383643 12.89613525 15.13468963 8.4375 12.25 C 7.34308594 11.55390625 6.24867187 10.8578125 5.12109375 10.140625 C 2.29999436 8.20575333 -0.36476481 6.17885368 -3 4 C -2.67 3.01 -2.34 2.02 -2 1 C -1.34 1.33 -0.68 1.66 0 2 C 0 1.34 0 0.68 0 0 Z" stroke-linecap="round"/>
</g>
		<g transform="matrix(1 0 0 1 115.5889 -23)">
<path style="stroke: none; stroke-width: 1; stroke-dasharray: none; stroke-linecap: butt; stroke-dashoffset: 0; stroke-linejoin: miter; stroke-miterlimit: 4; is-custom-font: none; font-file-url: none; fill: rgb(232,171,86); fill-rule: nonzero; opacity: 1;" transform=" translate(1.4111, -22)" d="M 0 0 C 0.66 0 1.32 0 2 0 C 2.55806565 15.38329428 2.11732088 29.64358478 -4 44 C -4.33 44 -4.66 44 -5 44 C -4.60982246 37.6544811 -4.09588299 32.02566359 -2 26 C -0.75293486 18.72545337 -0.94499339 11.37885079 -1.0625 4.02734375 C -1 1 -1 1 0 0 Z" stroke-linecap="round"/>
</g>
		<g transform="matrix(1 0 0 1 37 62.1157)">
<path style="stroke: none; stroke-width: 1; stroke-dasharray: none; stroke-linecap: butt; stroke-dashoffset: 0; stroke-linejoin: miter; stroke-miterlimit: 4; is-custom-font: none; font-file-url: none; fill: rgb(226,147,47); fill-rule: nonzero; opacity: 1;" transform=" translate(15, -4.1157)" d="M 0 0 C -0.33 0.99 -0.66 1.98 -1 3 C -3.59828991 4.02626519 -6.07525042 4.86213128 -8.75 5.625 C -9.46671875 5.8415625 -10.1834375 6.058125 -10.921875 6.28125 C -16.04425743 7.80666536 -20.92792573 9.15376397 -26.3125 9.0625 C -28.1378125 9.0315625 -28.1378125 9.0315625 -30 9 C -30 8.34 -30 7.68 -30 7 C -29.33613281 6.95101562 -28.67226562 6.90203125 -27.98828125 6.8515625 C -23.2800475 6.45290913 -19.33606753 5.9822023 -15 4 C -13.34080104 3.63128912 -11.6752357 3.28718326 -10 3 C -9.67 2.01 -9.34 1.02 -9 0 C -5.8033 -1.37001429 -3.30096158 -0.8252404 0 0 Z" stroke-linecap="round"/>
</g>
		<g transform="matrix(1 0 0 1 13.9314 -67)">
<path style="stroke: none; stroke-width: 1; stroke-dasharray: none; stroke-linecap: butt; stroke-dashoffset: 0; stroke-linejoin: miter; stroke-miterlimit: 4; is-custom-font: none; font-file-url: none; fill: rgb(242,174,87); fill-rule: nonzero; opacity: 1;" transform=" translate(-23.9314, -8)" d="M 0 0 C 14.85 0 29.7 0 45 0 C 48.375 11.25 48.375 11.25 47 16 C 45 16 45 16 43.25 14.4375 C 42 12 42 12 42.875 8.4375 C 43.24625 7.303125 43.6175 6.16875 44 5 C 43.505 3.515 43.505 3.515 43 2 C 28.81 1.67 14.62 1.34 0 1 C 0 0.67 0 0.34 0 0 Z" stroke-linecap="round"/>
</g>
		<g transform="matrix(1 0 0 1 -57 30)">
<path style="stroke: none; stroke-width: 1; stroke-dasharray: none; stroke-linecap: butt; stroke-dashoffset: 0; stroke-linejoin: miter; stroke-miterlimit: 4; is-custom-font: none; font-file-url: none; fill: rgb(233,145,29); fill-rule: nonzero; opacity: 1;" transform=" translate(3, -6)" d="M 0 0 C 2.64 0 5.28 0 8 0 C 3.25 4 3.25 4 1 4 C 0.67 5.32 0.34 6.64 0 8 C -3.3 8 -6.6 8 -10 8 C -10.66 9.32 -11.32 10.64 -12 12 C -12.66 11.34 -13.32 10.68 -14 10 C -14 8.68 -14 7.36 -14 6 C -4.58997722 2.74031891 -4.58997722 2.74031891 0 2 C 0 1.34 0 0.68 0 0 Z" stroke-linecap="round"/>
</g>
		<g transform="matrix(1 0 0 1 65 7)">
<path style="stroke: none; stroke-width: 1; stroke-dasharray: none; stroke-linecap: butt; stroke-dashoffset: 0; stroke-linejoin: miter; stroke-miterlimit: 4; is-custom-font: none; font-file-url: none; fill: rgb(227,159,63); fill-rule: nonzero; opacity: 1;" transform=" translate(9, -12)" d="M 0 0 C 0.33 0 0.66 0 1 0 C 0.67 2.31 0.34 4.62 0 7 C -0.99 7 -1.98 7 -3 7 C -3 7.99 -3 8.98 -3 10 C -3.66 10 -4.32 10 -5 10 C -4.67 11.98 -4.34 13.96 -4 16 C -4.969375 16.61875 -5.93875 17.2375 -6.9375 17.875 C -10.02835362 19.65678846 -10.02835362 19.65678846 -11 22 C -12.84765625 22.6328125 -12.84765625 22.6328125 -15.0625 23.125 C -15.79597656 23.29257813 -16.52945313 23.46015625 -17.28515625 23.6328125 C -17.85105469 23.75398438 -18.41695312 23.87515625 -19 24 C -13.59964933 17.65458796 -13.59964933 17.65458796 -10.99609375 14.8125 C -7.11777003 10.57357312 -3.7781343 6.42095898 -0.91015625 1.43359375 C -0.60980469 0.96050781 -0.30945313 0.48742187 0 0 Z" stroke-linecap="round"/>
</g>
		<g transform="matrix(1 0 0 1 -72 18.125)">
<path style="stroke: none; stroke-width: 1; stroke-dasharray: none; stroke-linecap: butt; stroke-dashoffset: 0; stroke-linejoin: miter; stroke-miterlimit: 4; is-custom-font: none; font-file-url: none; fill: rgb(232,144,29); fill-rule: nonzero; opacity: 1;" transform=" translate(6, -9.125)" d="M 0 0 C -0.28241641 1.46015291 -0.57626614 2.91809793 -0.875 4.375 C -1.03742188 5.18710938 -1.19984375 5.99921875 -1.3671875 6.8359375 C -2 9 -2 9 -4 11 C -4 11.99 -4 12.98 -4 14 C -4 15.66666667 -4 17.33333333 -4 19 C -5.9375 18.25 -5.9375 18.25 -8 17 C -8.36162029 15.67405895 -8.69728039 14.34061543 -9 13 C -9.99 12.67 -10.98 12.34 -12 12 C -11.34 11.01 -10.68 10.02 -10 9 C -9.34 9.66 -8.68 10.32 -8 11 C -7.34 11 -6.68 11 -6 11 C -6 7.37 -6 3.74 -6 0 C -3 -1 -3 -1 0 0 Z" stroke-linecap="round"/>
</g>
		<g transform="matrix(1 0 0 1 -56.9503 -76.5)">
<path style="stroke: none; stroke-width: 1; stroke-dasharray: none; stroke-linecap: butt; stroke-dashoffset: 0; stroke-linejoin: miter; stroke-miterlimit: 4; is-custom-font: none; font-file-url: none; fill: rgb(233,170,81); fill-rule: nonzero; opacity: 1;" transform=" translate(3.9503, -11.5)" d="M 0 0 C 0.66 0 1.32 0 2 0 C 2.57352206 4.87493752 0.58577557 8.04777447 -1.875 12.0625 C -5.11244535 17.43505146 -5.11244535 17.43505146 -8 23 C -10 20 -10 20 -10 17 C -9.34 17 -8.68 17 -8 17 C -8.33 16.01 -8.66 15.02 -9 14 C -7.25 11.3125 -7.25 11.3125 -5 9 C -4.01 9 -3.02 9 -2 9 C -2.185625 8.21625 -2.37125 7.4325 -2.5625 6.625 C -3 4 -3 4 -2 2 C -1.34 2 -0.68 2 0 2 C 0 1.34 0 0.68 0 0 Z" stroke-linecap="round"/>
</g>
		<g transform="matrix(1 0 0 1 -67 -111.5)">
<path style="stroke: none; stroke-width: 1; stroke-dasharray: none; stroke-linecap: butt; stroke-dashoffset: 0; stroke-linejoin: miter; stroke-miterlimit: 4; is-custom-font: none; font-file-url: none; fill: rgb(238,173,86); fill-rule: nonzero; opacity: 1;" transform=" translate(11, -13.5)" d="M 0 0 C 0.33 0.66 0.66 1.32 1 2 C -0.16666667 3.02083333 -1.33333333 4.04166667 -2.5 5.0625 C -3.58474609 6.01769531 -3.58474609 6.01769531 -4.69140625 6.9921875 C -6.20402 8.30772636 -7.73234049 9.60546847 -9.27734375 10.8828125 C -9.99019531 11.47835937 -10.70304687 12.07390625 -11.4375 12.6875 C -12.42556641 13.49767578 -12.42556641 13.49767578 -13.43359375 14.32421875 C -15.23657642 16.25309547 -15.48901891 17.45000781 -16 20 C -17.21991283 22.41043016 -18.61501686 24.67680248 -20 27 C -20.99 27 -21.98 27 -23 27 C -23 26.01 -23 25.02 -23 24 C -22.34 24 -21.68 24 -21 24 C -20.7525 23.29875 -20.505 22.5975 -20.25 21.875 C -16.96777798 14.32588935 -11.93770235 8.38481474 -5.25 3.6875 C -4.26515625 2.99011719 -3.2803125 2.29273438 -2.265625 1.57421875 C -1.51796875 1.05472656 -0.7703125 0.53523438 0 0 Z" stroke-linecap="round"/>
</g>
		<g transform="matrix(1 0 0 1 -4.5 -111.0493)">
<path style="stroke: none; stroke-width: 1; stroke-dasharray: none; stroke-linecap: butt; stroke-dashoffset: 0; stroke-linejoin: miter; stroke-miterlimit: 4; is-custom-font: none; font-file-url: none; fill: rgb(232,187,117); fill-rule: nonzero; opacity: 1;" transform=" translate(1.582, -4.0484)" d="M 0 0 C 0.93134766 0.00322266 1.86269531 0.00644531 2.82226562 0.00976562 C 4.26182617 0.02233398 4.26182617 0.02233398 5.73046875 0.03515625 C 6.70951172 0.03966797 7.68855469 0.04417969 8.69726562 0.04882812 C 11.10422986 0.06056941 13.51106732 0.07699206 15.91796875 0.09765625 C 15.91796875 0.42765625 15.91796875 0.75765625 15.91796875 1.09765625 C 14.81582031 1.18402344 13.71367187 1.27039062 12.578125 1.359375 C 1.51628177 2.3440141 -8.55062943 4.60496349 -19.08203125 8.09765625 C -19.08203125 7.43765625 -19.08203125 6.77765625 -19.08203125 6.09765625 C -12.98148826 1.62392472 -7.5061757 -0.04605016 0 0 Z" stroke-linecap="round"/>
</g>
		<g transform="matrix(1 0 0 1 -40 -93.9199)">
<path style="stroke: none; stroke-width: 1; stroke-dasharray: none; stroke-linecap: butt; stroke-dashoffset: 0; stroke-linejoin: miter; stroke-miterlimit: 4; is-custom-font: none; font-file-url: none; fill: rgb(234,177,90); fill-rule: nonzero; opacity: 1;" transform=" translate(9.168, -9.6934)" d="M 0 0 C 0.60457031 0.20238281 1.20914063 0.40476563 1.83203125 0.61328125 C 1.05859375 1.17015625 0.28515625 1.72703125 -0.51171875 2.30078125 C -6.92342301 6.99846556 -12.72094683 11.78915781 -18.16796875 17.61328125 C -18.82796875 18.27328125 -19.48796875 18.93328125 -20.16796875 19.61328125 C -20.16796875 17.96328125 -20.16796875 16.31328125 -20.16796875 14.61328125 C -19.50796875 14.61328125 -18.84796875 14.61328125 -18.16796875 14.61328125 C -17.82765625 13.77796875 -17.82765625 13.77796875 -17.48046875 12.92578125 C -15.78178897 9.93286926 -13.74724188 7.87800888 -11.16796875 5.61328125 C -10.17796875 5.61328125 -9.18796875 5.61328125 -8.16796875 5.61328125 C -7.83796875 4.95328125 -7.50796875 4.29328125 -7.16796875 3.61328125 C -2.81700721 -0.50249318 -2.81700721 -0.50249318 0 0 Z" stroke-linecap="round"/>
</g>
		<g transform="matrix(1 0 0 1 -86.2853 -85)">
<path style="stroke: none; stroke-width: 1; stroke-dasharray: none; stroke-linecap: butt; stroke-dashoffset: 0; stroke-linejoin: miter; stroke-miterlimit: 4; is-custom-font: none; font-file-url: none; fill: rgb(233,168,82); fill-rule: nonzero; opacity: 1;" transform=" translate(4.2854, -10)" d="M 0 0 C 0.66 0 1.32 0 2 0 C 0.94730814 4.29174373 0.24340412 7.01606821 -3 10 C -3.7115625 11.4540625 -3.7115625 11.4540625 -4.4375 12.9375 C -5.97035791 15.94190151 -7.50898822 17.76667909 -10 20 C -11.384208 15.84737599 -10.0351284 13.92110975 -8.25 10.078125 C -6.6364655 7.39562389 -4.73338308 6.43862267 -2 5 C -0.65310085 2.42900598 -0.65310085 2.42900598 0 0 Z" stroke-linecap="round"/>
</g>
		<g transform="matrix(1 0 0 1 -81 -98)">
<path style="stroke: none; stroke-width: 1; stroke-dasharray: none; stroke-linecap: butt; stroke-dashoffset: 0; stroke-linejoin: miter; stroke-miterlimit: 4; is-custom-font: none; font-file-url: none; fill: rgb(235,178,103); fill-rule: nonzero; opacity: 1;" transform=" translate(7, -11)" d="M 0 0 C 0 3.59857954 -0.95830515 5.09451118 -3 8 C -3.66 8 -4.32 8 -5 8 C -5.1546875 9.11375 -5.1546875 9.11375 -5.3125 10.25 C -6.04857303 13.19429211 -7.18104443 14.62744926 -9 17 C -9 17.99 -9 18.98 -9 20 C -10.65 20.66 -12.3 21.32 -14 22 C -11.89879325 13.59517302 -7.57561172 7.51722357 -2 1 C -1.34 0.67 -0.68 0.34 0 0 Z" stroke-linecap="round"/>
</g>
		<g transform="matrix(1 0 0 1 6 -117)">
<path style="stroke: none; stroke-width: 1; stroke-dasharray: none; stroke-linecap: butt; stroke-dashoffset: 0; stroke-linejoin: miter; stroke-miterlimit: 4; is-custom-font: none; font-file-url: none; fill: rgb(242,173,91); fill-rule: nonzero; opacity: 1;" transform=" translate(-13, -2)" d="M 0 0 C 2.97 0 5.94 0 9 0 C 9.33 0.66 9.66 1.32 10 2 C 10.886875 1.814375 11.77375 1.62875 12.6875 1.4375 C 15.88729962 1.01488496 17.89926124 1.32957 21 2 C 21.99 1.67 22.98 1.34 24 1 C 24 1.66 24 2.32 24 3 C 24.99 3.33 25.98 3.66 27 4 C 17.76 4 8.52 4 -1 4 C -0.67 2.68 -0.34 1.36 0 0 Z" stroke-linecap="round"/>
</g>
		<g transform="matrix(1 0 0 1 -2.5 -4.5)">
<path style="stroke: none; stroke-width: 1; stroke-dasharray: none; stroke-linecap: butt; stroke-dashoffset: 0; stroke-linejoin: miter; stroke-miterlimit: 4; is-custom-font: none; font-file-url: none; fill: rgb(230,149,41); fill-rule: nonzero; opacity: 1;" transform=" translate(-7.5, -4.5)" d="M 0 0 C 0.33 0.66 0.66 1.32 1 2 C 1.99 2.66 2.98 3.32 4 4 C 3.01 4.66 2.02 5.32 1 6 C 1 6.66 1 7.32 1 8 C 1.928125 7.814375 2.85625 7.62875 3.8125 7.4375 C 7 7 7 7 10 8 C 10 7.01 10 6.02 10 5 C 10.66 5 11.32 5 12 5 C 12 4.34 12 3.68 12 3 C 13.32 3 14.64 3 16 3 C 16 4.98 16 6.96 16 9 C 10.39 9 4.78 9 -1 9 C -1 1 -1 1 0 0 Z" stroke-linecap="round"/>
</g>
		<g transform="matrix(1 0 0 1 19.5 -147.9996)">
<path style="stroke: none; stroke-width: 1; stroke-dasharray: none; stroke-linecap: butt; stroke-dashoffset: 0; stroke-linejoin: miter; stroke-miterlimit: 4; is-custom-font: none; font-file-url: none; fill: rgb(234,188,134); fill-rule: nonzero; opacity: 1;" transform=" translate(-19.5, -2.0005)" d="M 0 0 C 13.38297446 -0.35635139 25.87474294 0.30763958 39 3 C 39 3.33 39 3.66 39 4 C 36.39576408 4.02697137 33.79180756 4.04682489 31.1875 4.0625 C 30.44951172 4.07087891 29.71152344 4.07925781 28.95117188 4.08789062 C 25.70077932 4.10259828 23.10595105 4.03531702 20 3 C 20 2.34 20 1.68 20 1 C 13.4 1 6.8 1 0 1 C 0 0.67 0 0.34 0 0 Z" stroke-linecap="round"/>
</g>
		<g transform="matrix(1 0 0 1 -27.5 -140.3679)">
<path style="stroke: none; stroke-width: 1; stroke-dasharray: none; stroke-linecap: butt; stroke-dashoffset: 0; stroke-linejoin: miter; stroke-miterlimit: 4; is-custom-font: none; font-file-url: none; fill: rgb(243,178,95); fill-rule: nonzero; opacity: 1;" transform=" translate(8.5, -2.6322)" d="M 0 0 C -0.99 0.33 -1.98 0.66 -3 1 C -4.21869929 3.50447516 -4.21869929 3.50447516 -5 6 C -8 6 -8 6 -11 5 C -13.00875442 5.27571139 -15.01178687 5.60235737 -17 6 C -15 3 -15 3 -11.875 2.3125 C -10.92625 2.209375 -9.9775 2.10625 -9 2 C -9 1.34 -9 0.68 -9 0 C -5.62182575 -0.84454356 -3.32534757 -1.10844919 0 0 Z" stroke-linecap="round"/>
</g>
		<g transform="matrix(1 0 0 1 -73.5 28)">
<path style="stroke: none; stroke-width: 1; stroke-dasharray: none; stroke-linecap: butt; stroke-dashoffset: 0; stroke-linejoin: miter; stroke-miterlimit: 4; is-custom-font: none; font-file-url: none; fill: rgb(226,162,72); fill-rule: nonzero; opacity: 1;" transform=" translate(-7.5, -10)" d="M 0 0 C 4.29488489 2.57693093 6.59096861 4.64080034 9 9 C 9.99 9.66 10.98 10.32 12 11 C 13.85753812 14.23349228 15 16.24413583 15 20 C 9.16189917 14.65448892 4.26292449 8.67673628 0 2 C 0 1.34 0 0.68 0 0 Z" stroke-linecap="round"/>
</g>
		<g transform="matrix(1 0 0 1 8 36.6992)">
<path style="stroke: none; stroke-width: 1; stroke-dasharray: none; stroke-linecap: butt; stroke-dashoffset: 0; stroke-linejoin: miter; stroke-miterlimit: 4; is-custom-font: none; font-file-url: none; fill: rgb(237,147,39); fill-rule: nonzero; opacity: 1;" transform=" translate(-9, -1.6992)" d="M 0 0 C 5.94 0 11.88 0 18 0 C 17.01 1.485 17.01 1.485 16 3 C 12.8125 3.3984375 12.8125 3.3984375 9 3.375 C 7.741875 3.38273438 6.48375 3.39046875 5.1875 3.3984375 C 4.135625 3.26695312 3.08375 3.13546875 2 3 C 1.34 2.01 0.68 1.02 0 0 Z" stroke-linecap="round"/>
</g>
		<g transform="matrix(1 0 0 1 -7 -146.0058)">
<path style="stroke: none; stroke-width: 1; stroke-dasharray: none; stroke-linecap: butt; stroke-dashoffset: 0; stroke-linejoin: miter; stroke-miterlimit: 4; is-custom-font: none; font-file-url: none; fill: rgb(241,178,101); fill-rule: nonzero; opacity: 1;" transform=" translate(9, 0.0059)" d="M 0 0 C -0.66 0 -1.32 0 -2 0 C -2 0.66 -2 1.32 -2 2 C -7.28 2 -12.56 2 -18 2 C -18 1.34 -18 0.68 -18 0 C -15.09361174 -0.96879609 -12.59998848 -1.37015046 -9.5625 -1.6875 C -8.61503906 -1.79449219 -7.66757813 -1.90148437 -6.69140625 -2.01171875 C -3.8384667 -1.99929666 -2.39981533 -1.48073712 0 0 Z" stroke-linecap="round"/>
</g>
		<g transform="matrix(1 0 0 1 -63 25)">
<path style="stroke: none; stroke-width: 1; stroke-dasharray: none; stroke-linecap: butt; stroke-dashoffset: 0; stroke-linejoin: miter; stroke-miterlimit: 4; is-custom-font: none; font-file-url: none; fill: rgb(230,153,46); fill-rule: nonzero; opacity: 1;" transform=" translate(-7, -7)" d="M 0 0 C 0.66 0 1.32 0 2 0 C 1.67 3.3 1.34 6.6 1 10 C 1.83144531 9.77183594 2.66289063 9.54367188 3.51953125 9.30859375 C 4.60621094 9.02113281 5.69289063 8.73367187 6.8125 8.4375 C 7.89144531 8.14746094 8.97039062 7.85742188 10.08203125 7.55859375 C 13 7 13 7 16 8 C 14.0429132 8.67031719 12.08428887 9.33614683 10.125 10 C 9.03445312 10.37125 7.94390625 10.7425 6.8203125 11.125 C 4 12 4 12 2 12 C 1.67 12.66 1.34 13.32 1 14 C -0.60913531 10.35262664 -1.65351369 6.9845926 -2 3 C -1.34 2.01 -0.68 1.02 0 0 Z" stroke-linecap="round"/>
</g>
		<g transform="matrix(1 0 0 1 -90.4634 -8)">
<path style="stroke: none; stroke-width: 1; stroke-dasharray: none; stroke-linecap: butt; stroke-dashoffset: 0; stroke-linejoin: miter; stroke-miterlimit: 4; is-custom-font: none; font-file-url: none; fill: rgb(233,149,37); fill-rule: nonzero; opacity: 1;" transform=" translate(-2.5366, -8)" d="M 0 0 C 1.32 0.33 2.64 0.66 4 1 C 3.979375 1.969375 3.95875 2.93875 3.9375 3.9375 C 3.64381501 6.87465895 3.64381501 6.87465895 5 8 C 5.14115161 10.67058851 5.04247107 13.32432238 5 16 C 2.32725101 13.70802621 1.49032022 11.99794779 0.8125 8.5625 C 0.65394531 7.80066406 0.49539062 7.03882813 0.33203125 6.25390625 C 0 4 0 4 0 0 Z" stroke-linecap="round"/>
</g>
		<g transform="matrix(1 0 0 1 -27 29)">
<path style="stroke: none; stroke-width: 1; stroke-dasharray: none; stroke-linecap: butt; stroke-dashoffset: 0; stroke-linejoin: miter; stroke-miterlimit: 4; is-custom-font: none; font-file-url: none; fill: rgb(232,144,28); fill-rule: nonzero; opacity: 1;" transform=" translate(-5, -4)" d="M 0 0 C 1.875 0.3125 1.875 0.3125 4 1 C 4.66 1.99 5.32 2.98 6 4 C 8.05003955 5.19232613 8.05003955 5.19232613 10 6 C 6.52713178 8.10852713 6.52713178 8.10852713 3.875 7.5625 C 3.25625 7.376875 2.6375 7.19125 2 7 C 1.01 7.495 1.01 7.495 0 8 C 0 5.36 0 2.72 0 0 Z" stroke-linecap="round"/>
</g>
		<g transform="matrix(1 0 0 1 85.5 -41.5)">
<path style="stroke: none; stroke-width: 1; stroke-dasharray: none; stroke-linecap: butt; stroke-dashoffset: 0; stroke-linejoin: miter; stroke-miterlimit: 4; is-custom-font: none; font-file-url: none; fill: rgb(237,167,71); fill-rule: nonzero; opacity: 1;" transform=" translate(1.5, -12.5)" d="M 0 0 C 0 0.99 0 1.98 0 3 C 0.309375 4.2684375 0.309375 4.2684375 0.625 5.5625 C 1.14006885 10.28396441 0.09629284 14.41550269 -1 19 C -0.34 19.33 0.32 19.66 1 20 C 0.34 20.33 -0.32 20.66 -1 21 C -2.13350534 23.01669827 -2.13350534 23.01669827 -3 25 C -3.33 24.01 -3.66 23.02 -4 22 C -3.67 21.34 -3.34 20.68 -3 20 C -2.87310404 18.64929874 -2.79829657 17.29342256 -2.75390625 15.9375 C -2.72103516 15.14085938 -2.68816406 14.34421875 -2.65429688 13.5234375 C -2.59310396 11.84128322 -2.53581137 10.15898253 -2.48242188 8.4765625 C -2.44826172 7.67992188 -2.41410156 6.88328125 -2.37890625 6.0625 C -2.3538501 5.33160156 -2.32879395 4.60070312 -2.30297852 3.84765625 C -2 2 -2 2 0 0 Z" stroke-linecap="round"/>
</g>
		<g transform="matrix(1 0 0 1 2.5 66.041)">
<path style="stroke: none; stroke-width: 1; stroke-dasharray: none; stroke-linecap: butt; stroke-dashoffset: 0; stroke-linejoin: miter; stroke-miterlimit: 4; is-custom-font: none; font-file-url: none; fill: rgb(233,145,22); fill-rule: nonzero; opacity: 1;" transform=" translate(-8.5, -2.041)" d="M 0 0 C 5.61 0 11.22 0 17 0 C 15 3 15 3 12.5390625 3.58203125 C 11.57742187 3.65808594 10.61578125 3.73414063 9.625 3.8125 C 8.19027344 3.94591797 8.19027344 3.94591797 6.7265625 4.08203125 C 3.889471 3.99667463 2.39261918 3.46845585 0 2 C 0 1.34 0 0.68 0 0 Z" stroke-linecap="round"/>
</g>
		<g transform="matrix(1 0 0 1 -23.5 60.0265)">
<path style="stroke: none; stroke-width: 1; stroke-dasharray: none; stroke-linecap: butt; stroke-dashoffset: 0; stroke-linejoin: miter; stroke-miterlimit: 4; is-custom-font: none; font-file-url: none; fill: rgb(233,141,20); fill-rule: nonzero; opacity: 1;" transform=" translate(-5.5, -2.0265)" d="M 0 0 C 3.96 0 7.92 0 12 0 C 11.67 1.32 11.34 2.64 11 4 C 6.45194365 4.17835515 3.1205746 3.99785435 -1 2 C -0.67 1.34 -0.34 0.68 0 0 Z" stroke-linecap="round"/>
</g>
		<g transform="matrix(1 0 0 1 -81 14)">
<path style="stroke: none; stroke-width: 1; stroke-dasharray: none; stroke-linecap: butt; stroke-dashoffset: 0; stroke-linejoin: miter; stroke-miterlimit: 4; is-custom-font: none; font-file-url: none; fill: rgb(229,151,46); fill-rule: nonzero; opacity: 1;" transform=" translate(-4, -6)" d="M 0 0 C 2.46800047 1.15173355 4.04783565 2.04783565 6 4 C 6.66666667 6 7.33333333 8 8 10 C 7.34 10.66 6.68 11.32 6 12 C 2.59156258 9.11593757 1.13408616 7.6291735 0.1875 3.1875 C 0.125625 2.135625 0.06375 1.08375 0 0 Z" stroke-linecap="round"/>
</g>
		<g transform="matrix(1 0 0 1 -13.5 -146.0227)">
<path style="stroke: none; stroke-width: 1; stroke-dasharray: none; stroke-linecap: butt; stroke-dashoffset: 0; stroke-linejoin: miter; stroke-miterlimit: 4; is-custom-font: none; font-file-url: none; fill: rgb(233,193,132); fill-rule: nonzero; opacity: 1;" transform=" translate(13.5, -2.9773)" d="M 0 0 C -2.56474034 2.56474034 -3.81449843 2.30908839 -7.375 2.5 C -11.21200925 2.70684686 -13.61133626 3.27218331 -17 5 C -19.578125 5.4140625 -19.578125 5.4140625 -22.25 5.625 C -23.14203125 5.69976563 -24.0340625 5.77453125 -24.953125 5.8515625 C -25.62859375 5.90054687 -26.3040625 5.94953125 -27 6 C -23.56772861 3.71181908 -20.25503793 2.85248874 -16.3125 1.875 C -15.28866211 1.60236328 -15.28866211 1.60236328 -14.24414062 1.32421875 C -9.38028873 0.10251468 -5.01259657 -0.1687743 0 0 Z" stroke-linecap="round"/>
</g>
		<g transform="matrix(1 0 0 1 25.0469 35.5625)">
<path style="stroke: none; stroke-width: 1; stroke-dasharray: none; stroke-linecap: butt; stroke-dashoffset: 0; stroke-linejoin: miter; stroke-miterlimit: 4; is-custom-font: none; font-file-url: none; fill: rgb(231,151,44); fill-rule: nonzero; opacity: 1;" transform=" translate(-0.0469, -3.5625)" d="M 0 0 C 1.32 0 2.64 0 4 0 C 4.125 2.375 4.125 2.375 4 5 C 2 7 2 7 -0.625 7.125 C -1.40875 7.08375 -2.1925 7.0425 -3 7 C -3.33 6.34 -3.66 5.68 -4 5 C -2.25 2.5 -2.25 2.5 0 0 Z" stroke-linecap="round"/>
</g>
		<g transform="matrix(1 0 0 1 106.5182 -86.5)">
<path style="stroke: none; stroke-width: 1; stroke-dasharray: none; stroke-linecap: butt; stroke-dashoffset: 0; stroke-linejoin: miter; stroke-miterlimit: 4; is-custom-font: none; font-file-url: none; fill: rgb(240,173,86); fill-rule: nonzero; opacity: 1;" transform=" translate(-2.5182, -5.5)" d="M 0 0 C 2.5 1.125 2.5 1.125 5 3 C 5.38692581 6.15989415 5.43060128 8.13879744 4 11 C 3.34 11 2.68 11 2 11 C 0 9 0 9 -0.1953125 6.8359375 C -0.17210937 6.02382812 -0.14890625 5.21171875 -0.125 4.375 C -0.10695312 3.55773438 -0.08890625 2.74046875 -0.0703125 1.8984375 C -0.04710937 1.27195313 -0.02390625 0.64546875 0 0 Z" stroke-linecap="round"/>
</g>
		<g transform="matrix(1 0 0 1 58.5 20)">
<path style="stroke: none; stroke-width: 1; stroke-dasharray: none; stroke-linecap: butt; stroke-dashoffset: 0; stroke-linejoin: miter; stroke-miterlimit: 4; is-custom-font: none; font-file-url: none; fill: rgb(234,150,39); fill-rule: nonzero; opacity: 1;" transform=" translate(1.5, -3)" d="M 0 0 C 1.32 0.33 2.64 0.66 4 1 C 4 2.32 4 3.64 4 5 C 0.37 5.33 -3.26 5.66 -7 6 C -7 5.34 -7 4.68 -7 4 C -4.69 3.34 -2.38 2.68 0 2 C 0 1.34 0 0.68 0 0 Z" stroke-linecap="round"/>
</g>
		<g transform="matrix(1 0 0 1 70 2)">
<path style="stroke: none; stroke-width: 1; stroke-dasharray: none; stroke-linecap: butt; stroke-dashoffset: 0; stroke-linejoin: miter; stroke-miterlimit: 4; is-custom-font: none; font-file-url: none; fill: rgb(231,165,77); fill-rule: nonzero; opacity: 1;" transform=" translate(4, -7)" d="M 0 0 C 0.33 0 0.66 0 1 0 C 0.67 2.31 0.34 4.62 0 7 C -0.99 7 -1.98 7 -3 7 C -3 7.99 -3 8.98 -3 10 C -3.66 10 -4.32 10 -5 10 C -5.33 11.32 -5.66 12.64 -6 14 C -6.99 13.67 -7.98 13.34 -9 13 C -8.51789063 12.31292969 -8.03578125 11.62585938 -7.5390625 10.91796875 C -6.90742188 10.01691406 -6.27578125 9.11585938 -5.625 8.1875 C -4.99851563 7.29417969 -4.37203125 6.40085938 -3.7265625 5.48046875 C -2.46449761 3.66732122 -1.22541192 1.83811789 0 0 Z" stroke-linecap="round"/>
</g>
		<g transform="matrix(1 0 0 1 -51 43.5)">
<path style="stroke: none; stroke-width: 1; stroke-dasharray: none; stroke-linecap: butt; stroke-dashoffset: 0; stroke-linejoin: miter; stroke-miterlimit: 4; is-custom-font: none; font-file-url: none; fill: rgb(232,141,21); fill-rule: nonzero; opacity: 1;" transform=" translate(-5, -3.5)" d="M 0 0 C 1.98 0.66 3.96 1.32 6 2 C 6 2.66 6 3.32 6 4 C 7.32 4.33 8.64 4.66 10 5 C 7.35261084 6.4606285 6.10551666 7 3 7 C 0.64276511 4.46815512 0 3.52809907 0 0 Z" stroke-linecap="round"/>
</g>
		<g transform="matrix(1 0 0 1 -94.9682 -66)">
<path style="stroke: none; stroke-width: 1; stroke-dasharray: none; stroke-linecap: butt; stroke-dashoffset: 0; stroke-linejoin: miter; stroke-miterlimit: 4; is-custom-font: none; font-file-url: none; fill: rgb(228,168,94); fill-rule: nonzero; opacity: 1;" transform=" translate(0.9682, -8)" d="M 0 0 C 0.33 0 0.66 0 1 0 C 1.2358396 5.77807024 0.86783046 10.51324804 -1 16 C -1.66 16 -2.32 16 -3 16 C -2.57910004 10.39538469 -2.08386889 5.27913453 0 0 Z" stroke-linecap="round"/>
</g>
		<g transform="matrix(1 0 0 1 -35.5 -99)">
<path style="stroke: none; stroke-width: 1; stroke-dasharray: none; stroke-linecap: butt; stroke-dashoffset: 0; stroke-linejoin: miter; stroke-miterlimit: 4; is-custom-font: none; font-file-url: none; fill: rgb(233,182,114); fill-rule: nonzero; opacity: 1;" transform=" translate(2.5, -5)" d="M 0 0 C 1.32 0.33 2.64 0.66 4 1 C 0.04 3.97 -3.92 6.94 -8 10 C -8.33 8.68 -8.66 7.36 -9 6 C -8.01 6 -7.02 6 -6 6 C -5.67 5.34 -5.34 4.68 -5 4 C -2.6875 1.8125 -2.6875 1.8125 0 0 Z" stroke-linecap="round"/>
</g>
		<g transform="matrix(1 0 0 1 -39.5 52)">
<path style="stroke: none; stroke-width: 1; stroke-dasharray: none; stroke-linecap: butt; stroke-dashoffset: 0; stroke-linejoin: miter; stroke-miterlimit: 4; is-custom-font: none; font-file-url: none; fill: rgb(232,142,20); fill-rule: nonzero; opacity: 1;" transform=" translate(-1.5, -4)" d="M 0 0 C 0.99 0 1.98 0 3 0 C 3 1.32 3 2.64 3 4 C 4.41977909 6.22743787 4.41977909 6.22743787 6 8 C 4.35 7.67 2.7 7.34 1 7 C 1 6.34 1 5.68 1 5 C -0.32 5 -1.64 5 -3 5 C -3 4.34 -3 3.68 -3 3 C -2.34 3 -1.68 3 -1 3 C -0.67 2.01 -0.34 1.02 0 0 Z" stroke-linecap="round"/>
</g>
		<g transform="matrix(1 0 0 1 -75 -103.5)">
<path style="stroke: none; stroke-width: 1; stroke-dasharray: none; stroke-linecap: butt; stroke-dashoffset: 0; stroke-linejoin: miter; stroke-miterlimit: 4; is-custom-font: none; font-file-url: none; fill: rgb(236,167,73); fill-rule: nonzero; opacity: 1;" transform=" translate(2, -5.5)" d="M 0 0 C 0.66 0.99 1.32 1.98 2 3 C 1.24266726 4.3410477 0.46867264 5.67269781 -0.3125 7 C -0.74175781 7.7425 -1.17101562 8.485 -1.61328125 9.25 C -2.07089844 9.8275 -2.52851562 10.405 -3 11 C -3.99 11 -4.98 11 -6 11 C -6 10.01 -6 9.02 -6 8 C -5.34 8 -4.68 8 -4 8 C -3.71125 7.236875 -3.4225 6.47375 -3.125 5.6875 C -2 3 -2 3 0 0 Z" stroke-linecap="round"/>
</g>
		<g transform="matrix(1 0 0 1 64 -135.3828)">
<path style="stroke: none; stroke-width: 1; stroke-dasharray: none; stroke-linecap: butt; stroke-dashoffset: 0; stroke-linejoin: miter; stroke-miterlimit: 4; is-custom-font: none; font-file-url: none; fill: rgb(235,189,132); fill-rule: nonzero; opacity: 1;" transform=" translate(-6, -3.6172)" d="M 0 0 C 4.60895683 1.31684481 8.14140235 3.15198745 12 6 C 12 6.33 12 6.66 12 7 C 9.3125 7.3125 9.3125 7.3125 6 7 C 3.42714276 4.827365 1.51003081 3.02006162 0 0 Z" stroke-linecap="round"/>
</g>
		<g transform="matrix(1 0 0 1 -58.5 -81)">
<path style="stroke: none; stroke-width: 1; stroke-dasharray: none; stroke-linecap: butt; stroke-dashoffset: 0; stroke-linejoin: miter; stroke-miterlimit: 4; is-custom-font: none; font-file-url: none; fill: rgb(234,164,67); fill-rule: nonzero; opacity: 1;" transform=" translate(-2.5, -3)" d="M 0 0 C 1.65 0.33 3.3 0.66 5 1 C 5.33 2.32 5.66 3.64 6 5 C 4.1875 5.6875 4.1875 5.6875 2 6 C 0.25 4.5625 0.25 4.5625 -1 3 C -0.67 2.01 -0.34 1.02 0 0 Z" stroke-linecap="round"/>
</g>
		<g transform="matrix(1 0 0 1 62 52)">
<path style="stroke: none; stroke-width: 1; stroke-dasharray: none; stroke-linecap: butt; stroke-dashoffset: 0; stroke-linejoin: miter; stroke-miterlimit: 4; is-custom-font: none; font-file-url: none; fill: rgb(228,147,33); fill-rule: nonzero; opacity: 1;" transform=" translate(-3, -3)" d="M 0 0 C 0.33 0.66 0.66 1.32 1 2 C 3.31 1.34 5.62 0.68 8 0 C 8 1.32 8 2.64 8 4 C 5.03 3.505 5.03 3.505 2 3 C 2 3.99 2 4.98 2 6 C 0.68 5.67 -0.64 5.34 -2 5 C -1.34 4.34 -0.68 3.68 0 3 C 0 2.01 0 1.02 0 0 Z" stroke-linecap="round"/>
</g>
		<g transform="matrix(1 0 0 1 100 -100)">
<path style="stroke: none; stroke-width: 1; stroke-dasharray: none; stroke-linecap: butt; stroke-dashoffset: 0; stroke-linejoin: miter; stroke-miterlimit: 4; is-custom-font: none; font-file-url: none; fill: rgb(241,178,93); fill-rule: nonzero; opacity: 1;" transform=" translate(-3, -5)" d="M 0 0 C 3.08089673 2.77280706 4.68775452 5.06326356 6 9 C 5.01 9.33 4.02 9.66 3 10 C 3 9.34 3 8.68 3 8 C 2.34 8 1.68 8 1 8 C 0.67 5.36 0.34 2.72 0 0 Z" stroke-linecap="round"/>
</g>
		<g transform="matrix(1 0 0 1 76.4843 43.4688)">
<path style="stroke: none; stroke-width: 1; stroke-dasharray: none; stroke-linecap: butt; stroke-dashoffset: 0; stroke-linejoin: miter; stroke-miterlimit: 4; is-custom-font: none; font-file-url: none; fill: rgb(231,149,38); fill-rule: nonzero; opacity: 1;" transform=" translate(0.0781, -3.5313)" d="M 0 0 C 1.2065625 0.0309375 1.2065625 0.0309375 2.4375 0.0625 C 2.7675 0.7225 3.0975 1.3825 3.4375 2.0625 C 2.4475 2.3925 1.4575 2.7225 0.4375 3.0625 C -0.29573796 5.07758358 -0.29573796 5.07758358 -0.5625 7.0625 C -1.5525 7.0625 -2.5425 7.0625 -3.5625 7.0625 C -3.60504356 5.06295254 -3.60330783 3.06208364 -3.5625 1.0625 C -2.5625 0.0625 -2.5625 0.0625 0 0 Z" stroke-linecap="round"/>
</g>
		<g transform="matrix(1 0 0 1 117.5 -40)">
<path style="stroke: none; stroke-width: 1; stroke-dasharray: none; stroke-linecap: butt; stroke-dashoffset: 0; stroke-linejoin: miter; stroke-miterlimit: 4; is-custom-font: none; font-file-url: none; fill: rgb(239,170,74); fill-rule: nonzero; opacity: 1;" transform=" translate(-0.5, -5)" d="M 0 0 C 0.66 0 1.32 0 2 0 C 2 2.97 2 5.94 2 9 C 1.01 9.495 1.01 9.495 0 10 C -0.19412181 8.52168779 -0.38012131 7.04230684 -0.5625 5.5625 C -0.66691406 4.73878906 -0.77132813 3.91507812 -0.87890625 3.06640625 C -0.91886719 2.38449219 -0.95882813 1.70257813 -1 1 C -0.67 0.67 -0.34 0.34 0 0 Z" stroke-linecap="round"/>
</g>
		<g transform="matrix(1 0 0 1 -45 -130.5)">
<path style="stroke: none; stroke-width: 1; stroke-dasharray: none; stroke-linecap: butt; stroke-dashoffset: 0; stroke-linejoin: miter; stroke-miterlimit: 4; is-custom-font: none; font-file-url: none; fill: rgb(239,171,81); fill-rule: nonzero; opacity: 1;" transform=" translate(2, -2.5)" d="M 0 0 C 0.66 0.33 1.32 0.66 2 1 C 2 1.99 2 2.98 2 4 C -0.875 4.625 -0.875 4.625 -4 5 C -4.66 4.34 -5.32 3.68 -6 3 C -4.03533587 1.93224776 -2.03144641 0.93446535 0 0 Z" stroke-linecap="round"/>
</g>
		<g transform="matrix(1 0 0 1 -55 45)">
<path style="stroke: none; stroke-width: 1; stroke-dasharray: none; stroke-linecap: butt; stroke-dashoffset: 0; stroke-linejoin: miter; stroke-miterlimit: 4; is-custom-font: none; font-file-url: none; fill: rgb(225,154,51); fill-rule: nonzero; opacity: 1;" transform=" translate(-4, -4)" d="M 0 0 C 4.875 2.625 4.875 2.625 6 6 C 6.66 6 7.32 6 8 6 C 8 6.66 8 7.32 8 8 C 5.04987143 6.63029745 2.4347778 5.17390875 0 3 C 0 2.01 0 1.02 0 0 Z" stroke-linecap="round"/>
</g>
		<g transform="matrix(1 0 0 1 -69.4099 -29)">
<path style="stroke: none; stroke-width: 1; stroke-dasharray: none; stroke-linecap: butt; stroke-dashoffset: 0; stroke-linejoin: miter; stroke-miterlimit: 4; is-custom-font: none; font-file-url: none; fill: rgb(236,152,44); fill-rule: nonzero; opacity: 1;" transform=" translate(0.4099, -5)" d="M 0 0 C 0.66 0.33 1.32 0.66 2 1 C 1.01 3.97 0.02 6.94 -1 10 C -3.05825864 5.88348273 -3.34008135 5.13191749 -2 1 C -1.34 0.67 -0.68 0.34 0 0 Z" stroke-linecap="round"/>
</g>
		<g transform="matrix(1 0 0 1 8 -53)">
<path style="stroke: none; stroke-width: 1; stroke-dasharray: none; stroke-linecap: butt; stroke-dashoffset: 0; stroke-linejoin: miter; stroke-miterlimit: 4; is-custom-font: none; font-file-url: none; fill: rgb(233,177,90); fill-rule: nonzero; opacity: 1;" transform=" translate(-2, -5)" d="M 0 0 C 1.32 0.33 2.64 0.66 4 1 C 3.67 1.33 3.34 1.66 3 2 C 2.76924918 3.34747084 2.58846937 4.70377565 2.4375 6.0625 C 2.2209375 8.0115625 2.2209375 8.0115625 2 10 C 1.34 10 0.68 10 0 10 C 0 6.7 0 3.4 0 0 Z" stroke-linecap="round"/>
</g>
		<g transform="matrix(1 0 0 1 -5 37.1158)">
<path style="stroke: none; stroke-width: 1; stroke-dasharray: none; stroke-linecap: butt; stroke-dashoffset: 0; stroke-linejoin: miter; stroke-miterlimit: 4; is-custom-font: none; font-file-url: none; fill: rgb(230,145,28); fill-rule: nonzero; opacity: 1;" transform=" translate(3, -2.1159)" d="M 0 0 C 0 0.99 0 1.98 0 3 C -1.65 3.66 -3.3 4.32 -5 5 C -4.67 3.68 -4.34 2.36 -4 1 C -4.66 0.67 -5.32 0.34 -6 0 C -3.50907189 -1.24546405 -2.58919267 -0.7767578 0 0 Z" stroke-linecap="round"/>
</g>
		<g transform="matrix(1 0 0 1 107.0881 9.5)">
<path style="stroke: none; stroke-width: 1; stroke-dasharray: none; stroke-linecap: butt; stroke-dashoffset: 0; stroke-linejoin: miter; stroke-miterlimit: 4; is-custom-font: none; font-file-url: none; fill: rgb(219,159,80); fill-rule: nonzero; opacity: 1;" transform=" translate(0.9119, -5.5)" d="M 0 0 C 0.66 0 1.32 0 2 0 C 0.77472971 4.05281712 -0.69880494 7.44360764 -3 11 C -4 9 -4 9 -3.4765625 7.08984375 C -3.05503906 6.02443359 -3.05503906 6.02443359 -2.625 4.9375 C -2.34914062 4.22464844 -2.07328125 3.51179687 -1.7890625 2.77734375 C -1 1 -1 1 0 0 Z" stroke-linecap="round"/>
</g>
		<g transform="matrix(1 0 0 1 82.1097 -18.5)">
<path style="stroke: none; stroke-width: 1; stroke-dasharray: none; stroke-linecap: butt; stroke-dashoffset: 0; stroke-linejoin: miter; stroke-miterlimit: 4; is-custom-font: none; font-file-url: none; fill: rgb(235,167,73); fill-rule: nonzero; opacity: 1;" transform=" translate(0.8902, -6.5)" d="M 0 0 C 0.66 1.32 1.32 2.64 2 4 C 1.34 4 0.68 4 0 4 C -0.12375 4.7425 -0.2475 5.485 -0.375 6.25 C -0.95486701 8.80141485 -1.73708739 10.7267573 -3 13 C -4 11 -4 11 -3.22265625 8.3984375 C -2.83980469 7.40070313 -2.45695313 6.40296875 -2.0625 5.375 C -1.68222656 4.37210938 -1.30195313 3.36921875 -0.91015625 2.3359375 C -0.60980469 1.56507813 -0.30945313 0.79421875 0 0 Z" stroke-linecap="round"/>
</g>
		<g transform="matrix(1 0 0 1 79.5 -65.5)">
<path style="stroke: none; stroke-width: 1; stroke-dasharray: none; stroke-linecap: butt; stroke-dashoffset: 0; stroke-linejoin: miter; stroke-miterlimit: 4; is-custom-font: none; font-file-url: none; fill: rgb(235,183,98); fill-rule: nonzero; opacity: 1;" transform=" translate(-0.5, -4.5)" d="M 0 0 C 2 3 2 3 3 6 C 2.01 6.99 1.02 7.98 0 9 C -0.66 6.36 -1.32 3.72 -2 1 C -1.34 0.67 -0.68 0.34 0 0 Z" stroke-linecap="round"/>
</g>
		<g transform="matrix(1 0 0 1 69.5 -129.5902)">
<path style="stroke: none; stroke-width: 1; stroke-dasharray: none; stroke-linecap: butt; stroke-dashoffset: 0; stroke-linejoin: miter; stroke-miterlimit: 4; is-custom-font: none; font-file-url: none; fill: rgb(244,179,101); fill-rule: nonzero; opacity: 1;" transform=" translate(-5.5, -2.4098)" d="M 0 0 C 1.98 0 3.96 0 6 0 C 6 0.66 6 1.32 6 2 C 8.475 2.99 8.475 2.99 11 4 C 8.30234372 5.34882814 6.84835666 4.80338265 4 4 C 3.67 3.34 3.34 2.68 3 2 C 2.01 2 1.02 2 0 2 C 0 1.34 0 0.68 0 0 Z" stroke-linecap="round"/>
</g>
		<g transform="matrix(1 0 0 1 84 37)">
<path style="stroke: none; stroke-width: 1; stroke-dasharray: none; stroke-linecap: butt; stroke-dashoffset: 0; stroke-linejoin: miter; stroke-miterlimit: 4; is-custom-font: none; font-file-url: none; fill: rgb(231,151,42); fill-rule: nonzero; opacity: 1;" transform=" translate(1, -4)" d="M 0 0 C 0.66 0 1.32 0 2 0 C 2 0.99 2 1.98 2 3 C 1.01 3 0.02 3 -1 3 C -1 4.65 -1 6.3 -1 8 C -1.99 7.34 -2.98 6.68 -4 6 C -2.84826645 3.53199953 -1.95216435 1.95216435 0 0 Z" stroke-linecap="round"/>
</g>
		<g transform="matrix(1 0 0 1 11.5 -46)">
<path style="stroke: none; stroke-width: 1; stroke-dasharray: none; stroke-linecap: butt; stroke-dashoffset: 0; stroke-linejoin: miter; stroke-miterlimit: 4; is-custom-font: none; font-file-url: none; fill: rgb(244,166,77); fill-rule: nonzero; opacity: 1;" transform=" translate(-5.5, -2)" d="M 0 0 C 3.63 0.33 7.26 0.66 11 1 C 9.68 1.99 8.36 2.98 7 4 C 3.8125 3.3125 3.8125 3.3125 1 2 C 0.67 1.34 0.34 0.68 0 0 Z" stroke-linecap="round"/>
</g>
		<g transform="matrix(1 0 0 1 61.5 54.5)">
<path style="stroke: none; stroke-width: 1; stroke-dasharray: none; stroke-linecap: butt; stroke-dashoffset: 0; stroke-linejoin: miter; stroke-miterlimit: 4; is-custom-font: none; font-file-url: none; fill: rgb(219,153,65); fill-rule: nonzero; opacity: 1;" transform=" translate(-0.5, -2.5)" d="M 0 0 C 1.65 0.33 3.3 0.66 5 1 C 2.37801226 3.15377564 0.35595828 4.40072174 -3 5 C -3.33 4.34 -3.66 3.68 -4 3 C -2.68 3 -1.36 3 0 3 C 0 2.01 0 1.02 0 0 Z" stroke-linecap="round"/>
</g>
		<g transform="matrix(1 0 0 1 25 37)">
<path style="stroke: none; stroke-width: 1; stroke-dasharray: none; stroke-linecap: butt; stroke-dashoffset: 0; stroke-linejoin: miter; stroke-miterlimit: 4; is-custom-font: none; font-file-url: none; fill: rgb(234,144,33); fill-rule: nonzero; opacity: 1;" transform=" translate(4, -2)" d="M 0 0 C -0.66 1.32 -1.32 2.64 -2 4 C -3.65 4 -5.3 4 -7 4 C -7.33 3.34 -7.66 2.68 -8 2 C -2.25 0 -2.25 0 0 0 Z" stroke-linecap="round"/>
</g>
		<g transform="matrix(1 0 0 1 61 -92)">
<path style="stroke: none; stroke-width: 1; stroke-dasharray: none; stroke-linecap: butt; stroke-dashoffset: 0; stroke-linejoin: miter; stroke-miterlimit: 4; is-custom-font: none; font-file-url: none; fill: rgb(243,172,117); fill-rule: nonzero; opacity: 1;" transform=" translate(-3, -3)" d="M 0 0 C 2.475 0.495 2.475 0.495 5 1 C 5.33 2.65 5.66 4.3 6 6 C 3.97945196 4.35830472 1.97956942 2.69088222 0 1 C 0 0.67 0 0.34 0 0 Z" stroke-linecap="round"/>
</g>
		<g transform="matrix(1 0 0 1 43.5 -109.5)">
<path style="stroke: none; stroke-width: 1; stroke-dasharray: none; stroke-linecap: butt; stroke-dashoffset: 0; stroke-linejoin: miter; stroke-miterlimit: 4; is-custom-font: none; font-file-url: none; fill: rgb(239,172,87); fill-rule: nonzero; opacity: 1;" transform=" translate(-1.5, -2.5)" d="M 0 0 C 1.65 0 3.3 0 5 0 C 4.1875 1.9375 4.1875 1.9375 3 4 C 2.01 4.33 1.02 4.66 0 5 C -0.66 4.34 -1.32 3.68 -2 3 C -1.34 2.67 -0.68 2.34 0 2 C 0 1.34 0 0.68 0 0 Z" stroke-linecap="round"/>
</g>
		<g transform="matrix(1 0 0 1 74.5 -129)">
<path style="stroke: none; stroke-width: 1; stroke-dasharray: none; stroke-linecap: butt; stroke-dashoffset: 0; stroke-linejoin: miter; stroke-miterlimit: 4; is-custom-font: none; font-file-url: none; fill: rgb(234,189,134); fill-rule: nonzero; opacity: 1;" transform=" translate(-4.5, -3)" d="M 0 0 C 3.93673644 1.31224548 6.22719294 2.91910327 9 6 C 5 6 5 6 3.375 4.5625 C 2.92125 4.046875 2.4675 3.53125 2 3 C 1.34 2.67 0.68 2.34 0 2 C 0 1.34 0 0.68 0 0 Z" stroke-linecap="round"/>
</g>
		<g transform="matrix(1 0 0 1 87 36.5)">
<path style="stroke: none; stroke-width: 1; stroke-dasharray: none; stroke-linecap: butt; stroke-dashoffset: 0; stroke-linejoin: miter; stroke-miterlimit: 4; is-custom-font: none; font-file-url: none; fill: rgb(220,159,71); fill-rule: nonzero; opacity: 1;" transform=" translate(0, -3.5)" d="M 0 0 C 0.99 0.33 1.98 0.66 3 1 C 1.35 2.98 -0.3 4.96 -2 7 C -2.33 5.68 -2.66 4.36 -3 3 C -2.01 3 -1.02 3 0 3 C 0 2.01 0 1.02 0 0 Z" stroke-linecap="round"/>
</g>
		<g transform="matrix(1 0 0 1 -24 29.5)">
<path style="stroke: none; stroke-width: 1; stroke-dasharray: none; stroke-linecap: butt; stroke-dashoffset: 0; stroke-linejoin: miter; stroke-miterlimit: 4; is-custom-font: none; font-file-url: none; fill: rgb(226,151,49); fill-rule: nonzero; opacity: 1;" transform=" translate(-3, -2.5)" d="M 0 0 C 2.97 0.495 2.97 0.495 6 1 C 5.67 2.32 5.34 3.64 5 5 C 5 4.34 5 3.68 5 3 C 3.35 2.67 1.7 2.34 0 2 C 0 1.34 0 0.68 0 0 Z" stroke-linecap="round"/>
</g>
		<g transform="matrix(1 0 0 1 -38 22.4532)">
<path style="stroke: none; stroke-width: 1; stroke-dasharray: none; stroke-linecap: butt; stroke-dashoffset: 0; stroke-linejoin: miter; stroke-miterlimit: 4; is-custom-font: none; font-file-url: none; fill: rgb(230,148,41); fill-rule: nonzero; opacity: 1;" transform=" translate(-4, -1.4531)" d="M 0 0 C 2.875 -0.125 2.875 -0.125 6 0 C 6.66 0.66 7.32 1.32 8 2 C 5.36 2.33 2.72 2.66 0 3 C 0 2.01 0 1.02 0 0 Z" stroke-linecap="round"/>
</g>
		<g transform="matrix(1 0 0 1 118.1423 -54)">
<path style="stroke: none; stroke-width: 1; stroke-dasharray: none; stroke-linecap: butt; stroke-dashoffset: 0; stroke-linejoin: miter; stroke-miterlimit: 4; is-custom-font: none; font-file-url: none; fill: rgb(237,176,90); fill-rule: nonzero; opacity: 1;" transform=" translate(-1.1423, -4)" d="M 0 0 C 1.9451 2.91765 2.45276317 4.62537285 3 8 C 2.01 8 1.02 8 0 8 C -0.79953138 4.71303767 -1.09658936 3.28976808 0 0 Z" stroke-linecap="round"/>
</g>
		<g transform="matrix(1 0 0 1 80 -124)">
<path style="stroke: none; stroke-width: 1; stroke-dasharray: none; stroke-linecap: butt; stroke-dashoffset: 0; stroke-linejoin: miter; stroke-miterlimit: 4; is-custom-font: none; font-file-url: none; fill: rgb(238,185,115); fill-rule: nonzero; opacity: 1;" transform=" translate(-2, -2)" d="M 0 0 C 3.875 1.75 3.875 1.75 5 4 C 3.02 4 1.04 4 -1 4 C -0.67 2.68 -0.34 1.36 0 0 Z" stroke-linecap="round"/>
</g>
</g>
</g>
</svg>